HIERARCHY
ROOT Hips
{
	OFFSET 0.00 0.00 0.00
	CHANNELS 6 Xposition Yposition Zposition Xrotation Yrotation Zrotation
	JOINT RightUpLeg
	{
		OFFSET -3.76699 0.00000 0.00000
		CHANNELS 3 Xrotation Yrotation Zrotation
		JOINT RightLeg
		{
			OFFSET 0.00000 -18.01768 0.00000
			CHANNELS 3 Xrotation Yrotation Zrotation
			JOINT RightFoot
			{
				OFFSET 0.00000 -16.88108 0.00000
				CHANNELS 3 Xrotation Yrotation Zrotation
				JOINT RightToeBase
				{
					OFFSET 0.00000 -1.49359 5.57418
					CHANNELS 3 Xrotation Yrotation Zrotation
					End Site
					{
						OFFSET 0.00000 0.00000 2.95275
					}
				}
			}
		}
	}
	JOINT LeftUpLeg
	{
		OFFSET 3.76699 0.00000 0.00000
		CHANNELS 3 Xrotation Yrotation Zrotation
		JOINT LeftLeg
		{
			OFFSET 0.00000 -18.01768 0.00000
			CHANNELS 3 Xrotation Yrotation Zrotation
			JOINT LeftFoot
			{
				OFFSET 0.00000 -16.88108 0.00000
				CHANNELS 3 Xrotation Yrotation Zrotation
				JOINT LeftToeBase
				{
					OFFSET 0.00000 -1.49359 5.57418
					CHANNELS 3 Xrotation Yrotation Zrotation
					End Site
					{
						OFFSET 0.00000 0.00000 2.95275
					}
				}
			}
		}
	}
	JOINT Spine
	{
		OFFSET 0.00000 7.77970 0.00000
		CHANNELS 3 Xrotation Yrotation Zrotation
		JOINT RightShoulder
		{
			OFFSET 0.00000 10.94176 0.00000
			CHANNELS 3 Xrotation Yrotation Zrotation
			JOINT RightArm
			{
				OFFSET -7.70894 0.00000 0.00000
				CHANNELS 3 Xrotation Yrotation Zrotation
				JOINT RightForeArm
				{
					OFFSET -11.52135 0.00000 0.00000
					CHANNELS 3 Yrotation Zrotation Xrotation
					JOINT RightHand
					{
						OFFSET -10.17590 0.00000 0.00000
						CHANNELS 3 Xrotation Yrotation Zrotation
						End Site
						{
							OFFSET -3.93700 0.00000 0.00000
						}
						JOINT RightHandThumb1
						{
							OFFSET 0.00000 0.00000 0.00000
							CHANNELS 3 Xrotation Zrotation Yrotation
							End Site
							{
								OFFSET 0.00000 0.00000 3.93700
							}
						}
					}
				}
			}
		}
		JOINT LeftShoulder
		{
			OFFSET 0.00000 10.94176 0.00000
			CHANNELS 3 Xrotation Yrotation Zrotation
			JOINT LeftArm
			{
				OFFSET 7.70894 0.00000 0.00000
				CHANNELS 3 Xrotation Yrotation Zrotation
				JOINT LeftForeArm
				{
					OFFSET 11.52135 0.00000 0.00000
					CHANNELS 3 Yrotation Zrotation Xrotation
					JOINT LeftHand
					{
						OFFSET 10.17590 0.00000 0.00000
						CHANNELS 3 Xrotation Yrotation Zrotation
						End Site
						{
							OFFSET 3.93700 0.00000 0.00000
						}
						JOINT LeftHandThumb1
						{
							OFFSET 0.00000 0.00000 0.00000
							CHANNELS 3 Xrotation Zrotation Yrotation
							End Site
							{
								OFFSET 0.00000 0.00000 3.93700
							}
						}
					}
				}
			}
		}
		JOINT Head
		{
			OFFSET 0.00000 16.64604 0.00000
			CHANNELS 3 Xrotation Yrotation Zrotation
			End Site
			{
				OFFSET 0.00000 4.52755 0.00000
			}
		}
	}
}
MOTION
Frames: 11
Frame Time: 0.008333
 2.8796 37.1014 5.3997 0.1661 -6.0806 0.9420 8.2139 -6.0876 -2.5701 -5.5193 0.0000 0.0000 -7.0474 -16.4317 10.3868 13.1127 -0.0000 0.0000 8.0697 8.1701 2.4184 -3.5683 0.0000 0.0000 -5.0875 14.1291 -13.1703 8.3079 0.0000 0.0000 -1.5693 -6.0494 -4.3316 -16.0552 -13.0694 -36.4884 -143.9908 39.7368 46.3466 142.3484 0.0000 -63.4945 -1.8807 22.8594 4.8315 32.8623 0.0000 -24.3270 -6.8570 31.8241 43.3880 -118.2857 -19.1194 -18.5729 -107.0038 -0.0000 -39.3945 1.3461 13.8854 -5.5924 33.1476 -0.0000 26.2537 7.2071 28.5120 15.2915
 2.8827 37.1006 5.3974 0.1326 -6.0917 0.9547 8.2435 -6.0978 -2.5897 -5.5271 -0.0000 -0.0000 -7.0553 -16.3962 10.3517 13.1204 0.0000 -0.0000 8.1022 8.1791 2.3967 -3.5646 -0.0000 -0.0000 -5.0963 14.1227 -13.1819 8.4578 -0.0000 0.0000 -1.5729 -6.0567 -4.3280 -15.9371 -13.1827 -36.4967 -143.8448 39.5860 46.4568 142.4744 0.0000 -63.1191 -1.7802 22.8327 4.5794 32.8623 0.0000 -24.3270 -6.8480 31.8137 43.3840 -118.1682 -19.3095 -18.7535 -106.8360 -0.0000 -39.3640 1.4202 13.8069 -5.9309 33.1476 -0.0000 26.2537 7.6803 28.8224 15.0536
 2.8846 37.1001 5.3946 0.1040 -6.1091 0.9616 8.2610 -6.0843 -2.6138 -5.5166 0.0000 0.0000 -7.0611 -16.3552 10.3819 13.0991 -0.0000 0.0000 8.1277 8.1949 2.3824 -3.5615 0.0000 0.0000 -5.0887 14.1201 -13.1771 8.3833 0.0000 0.0000 -1.5830 -6.0410 -4.3273 -15.7646 -13.3013 -36.5012 -143.7288 39.4235 46.5238 142.5890 0.0000 -62.8639 -1.7049 22.7829 4.3953 32.8623 0.0000 -24.3270 -6.8420 31.7736 43.4017 -117.9877 -19.5293 -18.8990 -106.6806 -0.0000 -39.1415 1.4116 13.7183 -5.9323 33.1476 -0.0000 26.2537 8.2295 29.0682 14.8097
 2.8876 37.0982 5.3933 0.0659 -6.1209 0.9762 8.2992 -6.0919 -2.6369 -5.5309 0.0000 -0.0000 -7.0788 -16.3418 10.3699 13.1428 -0.0000 0.0000 8.1672 8.2041 2.3588 -3.5599 -0.0000 -0.0000 -5.1003 14.1240 -13.1964 8.4355 -0.0000 -0.0000 -1.5915 -6.0538 -4.3487 -15.5683 -13.3463 -36.4804 -143.5958 39.3110 46.5358 142.6649 0.0000 -62.6530 -1.6057 22.8430 4.1301 32.8623 0.0000 -24.3270 -6.8160 31.7813 43.4445 -117.8201 -19.7463 -19.0311 -106.4859 -0.0000 -39.1862 1.4337 13.5698 -6.0889 33.1476 -0.0000 26.2537 8.7832 29.3380 14.5922
 2.8910 37.0966 5.3914 0.0223 -6.1463 0.9953 8.3362 -6.1028 -2.6663 -5.5438 -0.0000 -0.0000 -7.1069 -16.3518 10.4082 13.2296 -0.0000 -0.0000 8.2154 8.2397 2.3255 -3.5652 0.0000 0.0000 -5.1004 14.1117 -13.1762 8.3097 0.0000 -0.0000 -1.5998 -6.0518 -4.3533 -15.3557 -13.4814 -36.5007 -143.4296 39.1434 46.5783 142.7630 0.0000 -62.3805 -1.4952 22.8252 3.8494 32.8623 0.0000 -24.3270 -6.9012 31.7078 43.5271 -117.4968 -19.9181 -19.1828 -106.3140 -0.0000 -39.0639 1.4621 13.4651 -6.2556 33.1476 -0.0000 26.2537 9.4349 29.6373 14.2435
 2.8942 37.0952 5.3888 -0.0134 -6.1748 1.0066 8.3568 -6.0884 -2.6911 -5.5310 0.0000 0.0000 -7.1400 -16.3440 10.4133 13.3085 0.0000 0.0000 8.2531 8.2608 2.3010 -3.5630 -0.0000 -0.0000 -5.1122 14.1075 -13.1446 8.4157 0.0000 -0.0000 -1.6142 -6.0613 -4.3347 -15.1813 -13.5645 -36.5533 -143.1899 38.9985 46.5866 142.8395 0.0000 -62.1074 -1.3128 22.8406 3.3787 32.8623 0.0000 -24.3270 -6.7901 31.7191 43.5041 -117.3174 -20.1227 -19.2302 -106.1537 -0.0000 -39.0715 1.4930 13.4120 -6.4115 33.1476 -0.0000 26.2537 10.1362 29.9608 13.8496
 2.8971 37.0939 5.3862 -0.0585 -6.2009 1.0085 8.3993 -6.0722 -2.7086 -5.5423 -0.0000 -0.0000 -7.1368 -16.2855 10.3417 13.2342 -0.0000 0.0000 8.3065 8.2560 2.2861 -3.5758 -0.0000 0.0000 -5.1154 14.1362 -13.1456 8.4230 -0.0000 -0.0000 -1.6088 -6.0675 -4.2963 -15.0131 -13.6335 -36.6209 -142.8956 38.8628 46.5322 142.8791 0.0000 -61.9231 -1.1602 22.8835 2.9813 32.8623 0.0000 -24.3270 -6.6029 31.7656 43.4169 -117.1876 -20.3515 -19.2498 -105.9777 -0.0000 -39.0112 1.4896 13.2441 -6.4758 33.1476 -0.0000 26.2537 10.8738 30.3602 13.4113
 2.9001 37.0920 5.3848 -0.1200 -6.2365 1.0178 8.4395 -6.0729 -2.7309 -5.5191 -0.0000 0.0000 -7.1847 -16.2657 10.3070 13.2860 -0.0000 -0.0000 8.3759 8.2886 2.2614 -3.5808 -0.0000 -0.0000 -5.1217 14.1284 -13.1485 8.4783 0.0000 -0.0000 -1.5903 -6.0440 -4.2912 -14.8142 -13.6566 -36.6781 -142.5570 38.7738 46.3883 142.9005 0.0000 -61.8657 -0.9972 22.9632 2.5547 32.8623 0.0000 -24.3270 -6.3743 31.8268 43.3513 -117.1357 -20.5590 -19.2669 -105.8313 -0.0000 -38.8425 1.5164 13.1967 -6.6143 33.1476 -0.0000 26.2537 11.5930 30.7001 13.0340
 2.9034 37.0906 5.3821 -0.1736 -6.2679 1.0201 8.4875 -6.0376 -2.7502 -5.5226 -0.0000 -0.0000 -7.1909 -16.2654 10.3559 13.2872 -0.0000 -0.0000 8.4273 8.3053 2.2453 -3.5714 0.0000 0.0000 -5.1352 14.1421 -13.1460 8.4321 0.0000 0.0000 -1.5661 -6.0412 -4.2750 -14.6333 -13.6449 -36.7386 -142.1159 38.6120 46.1382 142.8892 0.0000 -61.8483 -0.8616 23.0620 2.1987 32.8623 0.0000 -24.3270 -6.2955 31.8453 43.3454 -116.9597 -20.7685 -19.3333 -105.6819 -0.0000 -38.6170 1.5075 13.1032 -6.6213 33.1476 -0.0000 26.2537 12.3073 31.0007 12.5982
 2.9047 37.0887 5.3803 -0.2469 -6.2974 1.0186 8.5444 -6.0330 -2.7597 -5.5094 0.0000 -0.0000 -7.2197 -16.2912 10.4016 13.3762 0.0000 -0.0000 8.5018 8.3282 2.2349 -3.5693 0.0000 0.0000 -5.1503 14.1319 -13.1228 8.4606 0.0000 -0.0000 -1.5109 -5.9983 -4.2687 -14.3743 -13.6562 -36.8150 -141.7329 38.4738 45.7519 142.8609 0.0000 -61.9250 -0.6652 23.1767 1.6897 32.8623 0.0000 -24.3270 -6.2598 31.8190 43.3827 -116.7587 -20.9291 -19.3991 -105.5751 -0.0000 -38.3504 1.4505 13.0506 -6.3980 33.1476 -0.0000 26.2537 12.9822 31.3453 12.2221
 2.9080 37.0874 5.3769 -0.3095 -6.3380 1.0203 8.5905 -6.0051 -2.7793 -5.4998 0.0000 0.0000 -7.2361 -16.2766 10.3857 13.3741 0.0000 -0.0000 8.5638 8.3509 2.2160 -3.5622 0.0000 -0.0000 -5.1692 14.1475 -13.1094 8.4337 0.0000 -0.0000 -1.4575 -5.9787 -4.2321 -14.2441 -13.7032 -36.9562 -141.2349 38.1958 45.4764 142.8473 0.0000 -61.7980 -0.4924 23.2410 1.2477 32.8623 0.0000 -24.3270 -6.1600 31.8405 43.3338 -116.6111 -21.1069 -19.4334 -105.4790 -0.0000 -38.0372 1.4459 13.0200 -6.3928 33.1476 -0.0000 26.2537 13.7108 31.6463 11.7168
